# xmcd
#
# Track frame offsets: 
#        150
#        18901
#        34158
#        51543
#        67126
#        84283
#        96935
#        113322
#        129854
#        145592
#
# Disc length: 2136 seconds
#
# Revision: 0
# Processed by: cddbd v1.5.2PL0 Copyright (c) Steve Scherf et al.
# Submitted via: ExactAudioCopy v0.99pb4
#
DISCID=7b08560a
DTITLE=ดาวใจ ไพจิตร - มิติใหม่ 2
DYEAR=2009
DGENRE=Country
TTITLE0=ด่วนพิศวาส
TTITLE1=เหมือนข้าวคอยเคียว
TTITLE2=เสียงครวญจากสวนแตง
TTITLE3=คุณหมอคะ
TTITLE4=คนสุดท้าย
TTITLE5=คุณไม่รักทำไมไม่บอก
TTITLE6=ฝนหนาวสาวครวญ
TTITLE7=หยุดก่อนผู้ชายเจ้าชู้
TTITLE8=มีนัดกับดาวใจ
TTITLE9=เนื้อคู่อีสาน
EXTD=
EXTT0=
EXTT1=
EXTT2=
EXTT3=
EXTT4=
EXTT5=
EXTT6=
EXTT7=
EXTT8=
EXTT9=
PLAYORDER=
